# xmcd CD database file
#
# Track frame offsets:
#	150
#	20617
#	40361
#	59446
#	77072
#	93919
#	110019
#	127921
#	150232
#	171695
#	192770
#	212273
#
# Disc length: 3066 seconds
#
# Revision: 0
# Processed by: cddbd v1.5.2PL0 Copyright (c) Steve Scherf et al.
# Submitted via: CDex 1.51
#
DISCID=980bf80c
DTITLE=Ded Harpo - En concert
DYEAR=2002
DGENRE=Blues
TTITLE0=Help me
TTITLE1=Flip flop and fly
TTITLE2=Le capitaine du navire dans la bouteille
TTITLE3=Mais que faut-il faire ?
TTITLE4=If you love me like you say
TTITLE5=Baby please don't go
TTITLE6=Mad man blues
TTITLE7=T'es comme la boule dans le flip
TTITLE8=My babe
TTITLE9=All your love
TTITLE10=I got my mojo working
TTITLE11=L'homme à la moto
EXTD=YEAR: 2002
EXTT0=
EXTT1=
EXTT2=
EXTT3=
EXTT4=
EXTT5=
EXTT6=
EXTT7=
EXTT8=
EXTT9=
EXTT10=
EXTT11=
PLAYORDER=
